<svg xmlns="http://www.w3.org/2000/svg" viewBox="0 0 1124.3 576.48"><defs><style>.cls-1{fill:#fff;}.cls-2{fill:#c2aa7a;}</style></defs><g id="Layer_2" data-name="Layer 2"><g id="Layer_1-2" data-name="Layer 1"><path class="cls-1" d="M373.22,467.8a23,23,0,0,0,14.5,11v3.5h-82v-3.5a23.92,23.92,0,0,0,14.75-11q5.25-8.49,5.25-24.5v-68h-175l190-243h27v235h26v8h-26v68Q367.72,459.31,373.22,467.8Zm-208-100.5h160.5v-206Z"/><path class="cls-1" d="M584.22,476.3q-21.5,10.5-42,10.5t-41.75-10.5q-21.25-10.5-38.5-32.5t-28-55.75q-10.75-33.75-10.75-80.75,0-46.5,10.75-80.5t28-55.75q17.25-21.75,38.5-32.25t41.75-10.5q20.5,0,41.75,10.5t38.5,32.25q17.25,21.75,28.25,55.75t11,80.5q0,47-11,80.75T622.47,443.8Q605.22,465.81,584.22,476.3Zm-72.5-12q14,14,30.5,14T573,464.55q14.25-13.74,24.75-37.25T614,372.8a359.06,359.06,0,0,0,5.75-65.5q0-37.5-5.75-68.75T597.72,184.8q-10.5-22.5-24.75-35.25T542.22,136.8q-16,0-30,12.75t-24.5,35.25q-10.5,22.5-16.75,53.75t-6.25,68.75a359.06,359.06,0,0,0,5.75,65.5q5.75,31,16.25,54.5T511.72,464.3Z"/><path class="cls-1" d="M907.71,467.8a23,23,0,0,0,14.5,11v3.5h-82v-3.5a23.92,23.92,0,0,0,14.75-11q5.25-8.49,5.25-24.5v-68h-175l190-243h27v235h26v8h-26v68Q902.21,459.31,907.71,467.8Zm-208-100.5h160.5v-206Z"/><path class="cls-2" d="M717.74,542.08l10.57,5.78-10.57,5.78a30.82,30.82,0,0,0-12.27,12.27l-5.78,10.57-5.78-10.57a30.82,30.82,0,0,0-12.27-12.27l-10.57-5.78,10.57-5.78a30.82,30.82,0,0,0,12.27-12.27l5.78-10.57,5.78,10.57A30.82,30.82,0,0,0,717.74,542.08Z"/><path class="cls-2" d="M1085.15,158.79l10.57,5.78-10.57,5.77a30.91,30.91,0,0,0-12.27,12.28l-5.78,10.56-5.78-10.56A30.87,30.87,0,0,0,1049,170.34l-10.56-5.77,10.56-5.78a30.87,30.87,0,0,0,12.28-12.28L1067.1,136l5.78,10.56A30.91,30.91,0,0,0,1085.15,158.79Z"/><path class="cls-2" d="M46.67,272.92l10.57,5.78-10.57,5.78A30.82,30.82,0,0,0,34.4,296.75l-5.78,10.57-5.78-10.57a30.79,30.79,0,0,0-12.28-12.27L0,278.7l10.56-5.78a30.79,30.79,0,0,0,12.28-12.27l5.78-10.57,5.78,10.57A30.82,30.82,0,0,0,46.67,272.92Z"/><path class="cls-2" d="M69.87,347.55l7.4,4.05-7.4,4a21.64,21.64,0,0,0-8.59,8.59l-4,7.4-4.05-7.4a21.58,21.58,0,0,0-8.59-8.59l-7.4-4,7.4-4.05A21.52,21.52,0,0,0,53.19,339l4.05-7.39,4,7.39A21.58,21.58,0,0,0,69.87,347.55Z"/><path class="cls-2" d="M732.36,131.9l7.39,4-7.39,4a21.58,21.58,0,0,0-8.59,8.59l-4,7.4-4-7.4a21.71,21.71,0,0,0-8.59-8.59l-7.4-4,7.4-4a21.64,21.64,0,0,0,8.59-8.59l4-7.39,4,7.39A21.52,21.52,0,0,0,732.36,131.9Z"/><path class="cls-2" d="M449,534.58l5.27,2.88L449,540.35a15.32,15.32,0,0,0-6.13,6.13L440,551.75l-2.88-5.27a15.45,15.45,0,0,0-6.13-6.13l-5.28-2.89,5.28-2.88a15.51,15.51,0,0,0,6.13-6.13l2.88-5.28,2.89,5.28A15.39,15.39,0,0,0,449,534.58Z"/><path class="cls-2" d="M1119,261.49l5.28,2.88-5.28,2.89a15.39,15.39,0,0,0-6.13,6.13l-2.88,5.27-2.89-5.27a15.32,15.32,0,0,0-6.13-6.13l-5.27-2.89,5.27-2.88a15.45,15.45,0,0,0,6.13-6.13l2.89-5.28,2.88,5.28A15.51,15.51,0,0,0,1119,261.49Z"/><path class="cls-2" d="M180.92,8.2l3.79,2.08-3.79,2.07a11.14,11.14,0,0,0-4.41,4.41l-2.08,3.8-2.07-3.8A11.14,11.14,0,0,0,168,12.35l-3.79-2.07L168,8.2a11,11,0,0,0,4.41-4.41L174.43,0l2.08,3.79A11,11,0,0,0,180.92,8.2Z"/><path class="cls-2" d="M471,521.1l3.79,2.07L471,525.25a11,11,0,0,0-4.41,4.41l-2.08,3.79-2.07-3.79a11.14,11.14,0,0,0-4.41-4.41l-3.8-2.08,3.8-2.07a11.14,11.14,0,0,0,4.41-4.41l2.07-3.8,2.08,3.8A11,11,0,0,0,471,521.1Z"/><path class="cls-2" d="M978.33,283l3.79,2.08-3.79,2.07a11.14,11.14,0,0,0-4.41,4.41l-2.08,3.8-2.07-3.8a11.14,11.14,0,0,0-4.41-4.41l-3.8-2.07,3.8-2.08a11.14,11.14,0,0,0,4.41-4.41l2.07-3.79,2.08,3.79A11.14,11.14,0,0,0,978.33,283Z"/><path class="cls-2" d="M571.64,297.52l17.91,9.8-17.91,9.79a52.44,52.44,0,0,0-20.82,20.81L541,355.83l-9.8-17.91a52.35,52.35,0,0,0-20.81-20.81l-17.91-9.79,17.91-9.8a52.28,52.28,0,0,0,20.81-20.81L541,258.8l9.79,17.91A52.37,52.37,0,0,0,571.64,297.52Z"/></g></g></svg>