<svg xmlns="http://www.w3.org/2000/svg" viewBox="0 0 727.81 291.68"><defs><style>.cls-1{isolation:isolate;}.cls-2{mix-blend-mode:multiply;}.cls-3{fill:#fff;}</style></defs><g class="cls-1"><g id="Layer_2" data-name="Layer 2"><g id="Layer_1-2" data-name="Layer 1"><g class="cls-2"><path class="cls-3" d="M389.36,287.56a26.57,26.57,0,0,1-14.68,4.12q-14.69,0-22.47-11.69t-7.8-32.33V67.88h-17v-5h17V15.59L380.64,0h1.84V62.83h39v5h-39V233.44q0,22,1.37,30.27t7.34,8.26a9.63,9.63,0,0,0,6.88-3.22,61.41,61.41,0,0,0,6-6.88,68.48,68.48,0,0,0,6-10.54l4.12,1.37a85.93,85.93,0,0,1-5.27,12.16,74.33,74.33,0,0,1-8.26,12.61A47.32,47.32,0,0,1,389.36,287.56Z"/><path class="cls-3" d="M723.68,250.87a67.77,67.77,0,0,1-6,10.55,41,41,0,0,1-6.19,7.33,10.38,10.38,0,0,1-7.11,3.22,6.19,6.19,0,0,1-6-3.68c-1.23-2.44-2.06-7-2.52-13.52s-.69-15.75-.69-27.52V182.07q0-24.76-.23-47.23T688.83,95.4a53.27,53.27,0,0,0-20.18-26.83q-14.22-9.87-42.19-9.86A63.35,63.35,0,0,0,601,64a81.5,81.5,0,0,0-21.55,13.53A76.71,76.71,0,0,0,572,85a67.63,67.63,0,0,0-5-6.55,59,59,0,0,0-18.8-14.22q-11.25-5.5-25.92-5.5-17,0-29.12,9.4T474.66,93.56V58.71h-2.3L420.08,79.8V83q16.05,3.67,16.05,32.56V251.33q0,14.68-4.81,22.47a22,22,0,0,1-13.53,10.09v3.21H493v-3.21a21.09,21.09,0,0,1-13.3-10.09q-5.06-7.8-5-22.47V126.58q0-28,13.3-45.86t35.77-17.89q13.75,0,21.33,9a62,62,0,0,1,11.46,20.63c2.6,7.8,1.44,14,2.06,21.79.1,1.3.51,1.53,1.11,1.06a60.5,60.5,0,0,0,4.85,4l7.34,5.51q4.13,3.21,8.25,6.88A156.1,156.1,0,0,1,581.74,111a74.67,74.67,0,0,1,6.65-22.47,51.58,51.58,0,0,1,14-17.89q8.94-7.34,24.08-7.34,11.44,0,17.65,7.34t9.17,20a144.34,144.34,0,0,1,3.44,29.12q.46,16.52.46,34.86-35.77,6.87-58.47,15.59t-35.55,19q-12.84,10.32-17.65,22.25a67.94,67.94,0,0,0-4.82,25.68,60.59,60.59,0,0,0,3.21,19.26A47.6,47.6,0,0,0,554.68,274q7.56,8,20,12.84t31.19,4.81q20.64,0,32.79-8.71A63.49,63.49,0,0,0,658.1,260q2.29,15.13,9.86,23.39t19.95,8.25a26.6,26.6,0,0,0,14.68-4.12,47.32,47.32,0,0,0,11.23-10.09,71.14,71.14,0,0,0,8.26-12.84q3.43-6.88,5.73-12.39Zm-66.5-3.67q0,3.68-3,10.32a58.7,58.7,0,0,1-8.48,13.3,52.49,52.49,0,0,1-13.53,11.46,34.59,34.59,0,0,1-18.12,4.82A28.23,28.23,0,0,1,598.48,283a32.25,32.25,0,0,1-11.24-11.46A56.2,56.2,0,0,1,580.82,255a90.13,90.13,0,0,1-2.06-19.72,147.79,147.79,0,0,1,1.6-21.79q1.6-10.77,9.41-20.87t23.38-18.57q15.58-8.49,44-14Z"/><path class="cls-3" d="M314.61,198.13A89.85,89.85,0,0,0,294,175.65a199.19,199.19,0,0,0-26.6-17.42,281.38,281.38,0,0,1-26.6-16.51A91.12,91.12,0,0,1,220.13,122q-8.25-11-8.25-27,0-12.84,9.86-22.25t26.37-9.4q11,0,18.58,6.19a47.21,47.21,0,0,1,12.15,15.14,68.9,68.9,0,0,1,6.42,18.8,96,96,0,0,1,1.83,17.2l19.73-15.14q0-7.32-4.36-15.59a55.39,55.39,0,0,0-11.93-15.13,65.36,65.36,0,0,0-18.11-11.47,55.93,55.93,0,0,0-22.48-4.58A81.85,81.85,0,0,0,227,61.91,55.42,55.42,0,0,0,207.52,72,49.59,49.59,0,0,0,194,89.43q-5,10.56-5,25.68,0,17.89,8,30.27a93.65,93.65,0,0,0,19.95,22,182.77,182.77,0,0,0,25.92,17.43,229.24,229.24,0,0,1,25.91,16.74,97.75,97.75,0,0,1,19.95,19.72q8,10.77,8,26.37a30.59,30.59,0,0,1-3.43,13.76,45.24,45.24,0,0,1-9.18,12.38,47.39,47.39,0,0,1-30,12.84h-2.29q-13.31,0-23.16-5.73a51.77,51.77,0,0,1-16.28-14.68,59.19,59.19,0,0,1-9.17-18.8,65,65,0,0,1-2.76-17.2l-18.34,14.22a24,24,0,0,0,.93,6.42h0a68.59,68.59,0,0,1-6,10.55,41,41,0,0,1-6.19,7.33,10.4,10.4,0,0,1-7.11,3.22,6.18,6.18,0,0,1-6-3.68q-1.85-3.66-2.53-13.52t-.68-27.52V182.07q0-24.76-.23-47.23t-6.2-39.44A53.19,53.19,0,0,0,128,68.57q-14.22-9.87-42.2-9.86A63.34,63.34,0,0,0,60.31,64,81.56,81.56,0,0,0,38.75,77.51,72.78,72.78,0,0,0,23.62,95.62q-5.75,9.87-5.73,18.58a54.33,54.33,0,0,0,6,5l7.34,5.51q4.12,3.21,8.25,6.88A156.1,156.1,0,0,1,41.05,111,74.38,74.38,0,0,1,47.7,88.52a51.58,51.58,0,0,1,14-17.89q8.94-7.34,24.07-7.34,11.46,0,17.66,7.34t9.17,20A145.06,145.06,0,0,1,116,119.7q.45,16.52.46,34.86Q80.72,161.43,58,170.15t-35.55,19Q9.63,199.5,4.81,211.43A68.13,68.13,0,0,0,0,237.11a60.59,60.59,0,0,0,3.21,19.26A47.47,47.47,0,0,0,14,274q7.56,8,19.95,12.84t31.19,4.81q20.63,0,32.79-8.71A63.59,63.59,0,0,0,117.41,260q2.28,15.13,9.86,23.39t20,8.25a26.54,26.54,0,0,0,14.67-4.12,47.17,47.17,0,0,0,11.24-10.09,70.55,70.55,0,0,0,8.25-12.84c1.44-2.87,2.7-5.54,3.84-8,.56,1.13,1.18,2.28,1.89,3.45a55,55,0,0,0,14.22,15.13,81.81,81.81,0,0,0,22.24,11.47,87.74,87.74,0,0,0,29.13,4.59,82.76,82.76,0,0,0,28-4.59,67.92,67.92,0,0,0,22.25-12.84,59.32,59.32,0,0,0,14.67-19.49,58.22,58.22,0,0,0,5.28-25Q322.87,211,314.61,198.13ZM116.49,247.2q0,3.68-3,10.32a58.76,58.76,0,0,1-8.49,13.3A52.27,52.27,0,0,1,91.5,282.28a34.59,34.59,0,0,1-18.12,4.82q-9.18,0-15.59-4.13a32.25,32.25,0,0,1-11.24-11.46A55.92,55.92,0,0,1,40.13,255a89.51,89.51,0,0,1-2.07-19.72,147.8,147.8,0,0,1,1.61-21.79q1.61-10.77,9.4-20.87t23.39-18.57q15.58-8.49,44-14Z"/></g><path class="cls-3" d="M632.81,218.83l8.68,4.75-8.68,4.75a25.38,25.38,0,0,0-10.09,10.09L618,247.1l-4.75-8.68a25.38,25.38,0,0,0-10.09-10.09l-8.68-4.75,8.68-4.75a25.38,25.38,0,0,0,10.09-10.09l4.75-8.68,4.75,8.68A25.38,25.38,0,0,0,632.81,218.83Z"/><path class="cls-3" d="M62.44,227.13l-8.69,4.75,8.69,4.75a25.38,25.38,0,0,1,10.09,10.09l4.75,8.68L82,246.72a25.38,25.38,0,0,1,10.09-10.09l8.68-4.75-8.68-4.75A25.38,25.38,0,0,1,82,217l-4.75-8.68L72.53,217A25.38,25.38,0,0,1,62.44,227.13Z"/></g></g></g></svg>